<svg xmlns="http://www.w3.org/2000/svg" width="960" height="720" viewBox="0 0 960 720" fill="none">
  <defs>
    <linearGradient id="bg" x1="0" y1="0" x2="1" y2="1">
      <stop offset="0%" stop-color="#0a0810"/>
      <stop offset="100%" stop-color="#12101a"/>
    </linearGradient>
    <linearGradient id="panel" x1="0" y1="0" x2="0" y2="1">
      <stop offset="0%" stop-color="#0891B2" stop-opacity="0.14"/>
      <stop offset="100%" stop-color="#0891B2" stop-opacity="0.03"/>
    </linearGradient>
    <linearGradient id="glow" x1="0.5" y1="0" x2="0.5" y2="1">
      <stop offset="0%" stop-color="#0891B2" stop-opacity="0.35"/>
      <stop offset="100%" stop-color="#0891B2" stop-opacity="0"/>
    </linearGradient>
    <filter id="soft" x="-20%" y="-20%" width="140%" height="140%">
      <feGaussianBlur stdDeviation="12"/>
    </filter>
  </defs>
  <rect width="960" height="720" fill="url(#bg)"/>
  <circle cx="780" cy="120" r="180" fill="#0891B2" opacity="0.08" filter="url(#soft)"/>
  <circle cx="140" cy="620" r="160" fill="#0891B2" opacity="0.05" filter="url(#soft)"/>

  <rect x="180" y="110" width="600" height="500" rx="24" fill="url(#panel)" stroke="#67E8F9" stroke-opacity="0.3" stroke-width="1.5"/>
  <rect x="180" y="110" width="600" height="56" rx="24" fill="#0891B2" fill-opacity="0.12"/>
  <circle cx="214" cy="138" r="6" fill="#f87171"/><circle cx="238" cy="138" r="6" fill="#fbbf24"/><circle cx="262" cy="138" r="6" fill="#4ade80"/>
  <text x="290" y="144" fill="#67E8F9" font-family="ui-monospace" font-size="13">generic chat · no tools</text>
  <rect x="220" y="210" width="320" height="56" rx="16" fill="#FFFFFF" fill-opacity="0.06"/>
  <text x="240" y="244" fill="#FFFFFF" font-family="system-ui" font-size="16">Can I afford ₹15,000 this month?</text>
  <rect x="360" y="300" width="380" height="120" rx="16" fill="#0891B2" fill-opacity="0.12" stroke="#67E8F9" stroke-opacity="0.25"/>
  <text x="384" y="345" fill="#67E8F9" font-family="ui-monospace" font-size="12">MODEL SAYS</text>
  <text x="384" y="385" fill="#FFFFFF" font-family="Space Grotesk" font-size="36" font-weight="700" opacity="0.55">₹??,???</text>
  <text x="480" y="480" text-anchor="middle" fill="#FFFFFF" font-family="ui-monospace" font-size="13" opacity="0.45">HALLUCINATED NUMBER · NO TOOL CALL</text>

</svg>
